<?xml version="1.0" encoding="UTF-8" standalone="no"?>
<!-- Created with Inkscape (http://www.inkscape.org/) -->

<svg
   xmlns:dc="http://purl.org/dc/elements/1.1/"
   xmlns:cc="http://creativecommons.org/ns#"
   xmlns:rdf="http://www.w3.org/1999/02/22-rdf-syntax-ns#"
   xmlns:svg="http://www.w3.org/2000/svg"
   xmlns="http://www.w3.org/2000/svg"
   xmlns:xlink="http://www.w3.org/1999/xlink"
   xmlns:sodipodi="http://sodipodi.sourceforge.net/DTD/sodipodi-0.dtd"
   xmlns:inkscape="http://www.inkscape.org/namespaces/inkscape"
   id="svg2"
   version="1.1"
   inkscape:version="0.48.4 r9939"
   width="128"
   height="128"
   sodipodi:docname="rtm_128x128.png">
  <metadata
     id="metadata8">
    <rdf:RDF>
      <cc:Work
         rdf:about="">
        <dc:format>image/svg+xml</dc:format>
        <dc:type
           rdf:resource="http://purl.org/dc/dcmitype/StillImage" />
        <dc:title></dc:title>
      </cc:Work>
    </rdf:RDF>
  </metadata>
  <defs
     id="defs6">
    <linearGradient
       inkscape:collect="always"
       id="linearGradient5774">
      <stop
         style="stop-color:#0000ff;stop-opacity:1;"
         offset="0"
         id="stop5776" />
      <stop
         style="stop-color:#0000ff;stop-opacity:0;"
         offset="1"
         id="stop5778" />
    </linearGradient>
    <linearGradient
       id="linearGradient5199">
      <stop
         style="stop-color:#0000ff;stop-opacity:1;"
         offset="0"
         id="stop5201" />
      <stop
         style="stop-color:#0000ff;stop-opacity:0;"
         offset="1"
         id="stop5203" />
    </linearGradient>
    <linearGradient
       inkscape:collect="always"
       xlink:href="#linearGradient5774"
       id="linearGradient5780"
       x1="-161.35593"
       y1="56.271186"
       x2="6.5104508"
       y2="56.271187"
       gradientUnits="userSpaceOnUse"
       gradientTransform="matrix(0.9591002,0,0,0.9591002,-21.514683,183.18284)" />
  </defs>
  <sodipodi:namedview
     pagecolor="#ffffff"
     bordercolor="#666666"
     borderopacity="1"
     objecttolerance="10"
     gridtolerance="10"
     guidetolerance="10"
     inkscape:pageopacity="0"
     inkscape:pageshadow="2"
     inkscape:window-width="1858"
     inkscape:window-height="976"
     id="namedview4"
     showgrid="false"
     inkscape:zoom="3.6875"
     inkscape:cx="-17.259702"
     inkscape:cy="59.752668"
     inkscape:window-x="0"
     inkscape:window-y="30"
     inkscape:window-maximized="0"
     inkscape:current-layer="g2987" />
  <g
     id="g2987"
     transform="translate(-173.01695,-48.813559)">
    <rect
       style="fill:url(#linearGradient5780);fill-opacity:1;stroke:#000000;stroke-width:0;stroke-linejoin:round;stroke-miterlimit:25.29999924;stroke-opacity:0.41454546;stroke-dasharray:none"
       id="rect5772"
       width="127.18644"
       height="127.18644"
       x="-176.27118"
       y="173.55933"
       transform="matrix(0,-1,1,0,0,0)"
       ry="21.457834" />
    <g
       id="g5814"
       transform="translate(-1.0847458,-2.1694916)">
      <path
         id="path5812"
         d="m 224.85362,176.19013 c -23.08242,-1.92062 -31.68151,-9.29979 -30.11834,-25.84559 0.54801,-5.80063 4.31896,-24.17433 8.54439,-41.63201 1.073,-4.4332 1.95092,-9.381535 1.95092,-10.9963 l 0,-2.935935 -4.16118,1.468149 c -6.98534,2.464571 -14.46858,2.75487 -18.40913,0.714151 -9.38577,-4.860664 -8.38487,-20.2938 1.58634,-24.460036 4.47553,-1.869998 14.55678,-1.652849 20.62438,0.444248 l 5.03768,1.741127 0.55072,-4.650001 c 1.3212,-11.15543 10.9422,-20.966163 17.2501,-17.590278 2.7145,1.45276 2.59067,4.55856 -0.37367,9.371434 -1.38558,2.249627 -2.43071,5.461926 -2.44826,7.524954 -0.0488,5.73012 0.59937,6.562403 4.6964,6.030823 1.9878,-0.257912 6.92612,0.22931 10.97406,1.082715 4.04793,0.853405 7.6821,1.552007 8.07592,1.552449 0.39383,4.41e-4 1.63543,-1.801346 2.75913,-4.003974 1.76729,-3.464157 1.95405,-5.025453 1.38354,-11.565704 -0.55121,-6.319028 -0.39819,-7.777839 0.93167,-8.881526 2.38778,-1.981677 9.96978,1.160369 12.50909,5.183871 2.33079,3.693123 2.03655,12.137842 -0.60063,17.237574 -0.90849,1.756847 -1.43987,3.406217 -1.18082,3.665266 0.25905,0.259049 2.16838,-3.22e-4 4.24296,-0.576381 6.02461,-1.672882 15.97732,-1.265746 20.62319,0.843635 10.79403,4.900839 10.13708,17.761137 -1.06133,20.776569 -4.54265,1.2232 -12.36897,0.44257 -16.38528,-1.634352 -1.50797,-0.779801 -2.87423,-1.417821 -3.03614,-1.417821 -0.48311,0 0.95621,24.245243 2.08882,35.186083 2.19964,21.248 0.96166,27.98197 -6.56686,35.72044 -6.8819,7.07383 -18.74986,9.37195 -39.48767,7.64642 z"
         style="fill:#000000;fill-opacity:1"
         inkscape:connector-curvature="0" />
      <path
         id="path5810"
         d="m 253.87304,172.73618 c 5.62393,-1.67785 11.54812,-6.23756 13.85728,-10.66566 2.89753,-5.5563 3.09342,-10.35949 1.24472,-30.5193 -0.99348,-10.83362 -1.90532,-24.4418 -2.02632,-30.24038 -0.21377,-10.244667 -1.00591,-13.089161 -2.25697,-8.104528 -0.84055,3.348977 -4.7684,4.18376 -10.30972,2.191113 -4.16521,-1.497799 -4.45738,-1.48466 -5.67605,0.255242 -0.70665,1.008878 -2.84581,2.349497 -4.75369,2.979156 -2.88736,0.952915 -3.87389,0.879459 -5.88487,-0.438183 -1.32879,-0.870658 -2.41598,-2.456021 -2.41598,-3.523028 0,-2.300933 -1.25099,-2.507937 -2.93002,-0.484835 -2.99332,3.606745 -12.77107,3.638201 -12.77107,0.04109 0,-1.819802 0.0454,-1.818198 -4.05076,-0.142812 -2.02266,0.827282 -4.07212,1.044845 -5.27175,0.55963 -3.07084,-1.24205 -3.14791,-1.174929 -3.71901,3.238835 -0.2968,2.29383 -2.57877,13.00247 -5.07104,23.79697 -4.79658,20.7749 -6.12889,30.36133 -5.0321,36.20774 1.51336,8.06692 10.38373,13.57537 24.51682,15.2248 11.83415,1.38113 27.25839,1.20304 32.55053,-0.37584 z"
         style="fill:#ffffff;fill-opacity:1"
         inkscape:connector-curvature="0" />
      <path
         id="path5808"
         d="m 239.72704,157.25539 c -1.47947,-1.47948 -1.45199,-5.91418 0.0459,-7.41209 1.73849,-1.73849 6.35602,-1.45634 7.0809,0.43266 1.27123,3.31278 -4.82416,9.28209 -7.12682,6.97943 z"
         style="fill:#000000;fill-opacity:1"
         inkscape:connector-curvature="0" />
      <path
         id="path5806"
         d="m 244.54537,153.98817 c 1.06387,-1.28189 1.04244,-1.69943 -0.12517,-2.43826 -2.2567,-1.42799 -3.86217,-1.0632 -3.86217,0.87752 0,3.28561 1.92914,4.04071 3.98734,1.56074 z"
         style="fill:#ffffff;fill-opacity:1"
         inkscape:connector-curvature="0" />
      <path
         id="path5804"
         d="m 214.62125,154.97224 c -1.83791,-1.83791 -1.82269,-1.66874 -0.42588,-4.73439 1.41441,-3.1043 3.73404,-4.01364 5.56578,-2.1819 1.8221,1.8221 0.8407,6.07995 -1.71687,7.44872 -1.41608,0.75786 -2.26474,0.62586 -3.42303,-0.53243 z"
         style="fill:#000000;fill-opacity:1"
         inkscape:connector-curvature="0" />
      <path
         id="path5802"
         d="m 218.96904,152.15825 c 0,-1.91862 -1.90216,-2.96422 -3.14022,-1.72616 -0.55362,0.55361 -0.70988,1.48664 -0.34724,2.0734 0.9619,1.55638 3.48746,1.30492 3.48746,-0.34724 z"
         style="fill:#ffffff;fill-opacity:1"
         inkscape:connector-curvature="0" />
      <path
         id="path5800"
         d="m 240.78543,121.35013 c -3.70695,-2.35288 -3.18697,-13.7533 0.72273,-15.84571 2.66167,-1.42448 3.69904,-1.25542 5.91909,0.96463 1.36939,1.36939 1.96264,3.27106 1.96264,6.29133 0,3.62896 -0.48807,4.73938 -3.01925,6.86922 -3.28597,2.76497 -3.72609,2.90055 -5.58521,1.72053 z"
         style="fill:#000000;fill-opacity:1"
         inkscape:connector-curvature="0" />
      <path
         id="path5798"
         d="m 246.68375,110.51226 c -3.36494,-4.51145 -6.98956,-2.01578 -7.02548,3.26263 3.00864,-2.3966 6.18581,-1.75079 8.24962,1.2364 -0.16545,-1.32162 1.23909,-1.19652 -1.22414,-4.49903 z"
         style="fill:#ffffff;fill-opacity:1"
         inkscape:connector-curvature="0" />
      <path
         id="path5796"
         d="m 223.45506,119.64675 c -2.34651,-2.34651 -2.06645,-10.69069 0.44306,-13.20019 1.56647,-1.56648 2.38954,-1.76869 3.90278,-0.95882 4.27897,2.29004 5.22835,8.87321 1.89141,13.11544 -2.32783,2.95935 -4.03571,3.2451 -6.23725,1.04357 z"
         style="fill:#000000;fill-opacity:1"
         inkscape:connector-curvature="0" />
      <path
         id="path5794"
         d="m 230.42884,113.47465 c -0.0778,-3.46341 -1.52971,-7.06036 -4.18751,-6.82264 -2.5049,0.22405 -3.36952,4.7928 -2.74279,7.02851 1.02591,-3.02016 5.87711,-3.12933 6.9303,-0.20587 z"
         style="fill:#ffffff;fill-opacity:1"
         inkscape:connector-curvature="0" />
      <path
         id="path5792"
         d="m 292.32254,96.666625 c 3.56419,-2.17313 3.99644,-4.43527 1.69708,-8.88172 -3.27336,-6.329989 -16.14424,-9.140456 -27.23662,-5.947351 -5.41666,1.559262 -6.43255,2.647817 -4.38344,4.696935 1.30059,1.300581 1.80945,1.288542 4.50744,-0.106642 1.67273,-0.865006 5.59158,-1.838687 8.70853,-2.163738 4.73116,-0.493388 6.05889,-0.273453 8.03879,1.331602 4.99663,4.050636 -0.41488,7.699788 -9.34231,6.299827 -2.94667,-0.462081 -5.55086,-0.527418 -5.78709,-0.145188 -0.68068,1.101373 3.88164,4.923283 6.98696,5.853057 5.32481,1.594315 13.39715,1.144481 16.81066,-0.936782 z"
         style="fill:#ffffff;fill-opacity:1"
         inkscape:connector-curvature="0" />
      <path
         id="path5790"
         d="m 204.4408,92.503109 c 3.58327,-1.640468 5.59624,-3.208887 5.9744,-4.654967 0.48931,-1.871123 0.26614,-2.093961 -1.57116,-1.568833 -13.90607,3.974558 -16.90531,4.290256 -19.86296,2.09076 -1.76281,-1.310934 -1.79359,-1.619654 -0.41262,-4.139688 2.09069,-3.815142 6.51697,-4.880508 14.55597,-3.503486 3.73521,0.639814 6.9623,1.775219 7.62621,2.683176 0.88052,1.204186 1.25836,1.273581 1.60811,0.295351 1.30147,-3.640067 -5.28376,-8.001407 -14.71339,-9.74457 -10.87119,-2.009648 -18.43294,1.162441 -19.55791,8.204372 -0.76324,4.777593 1.16465,9.311854 4.98529,11.725002 4.17561,2.637363 13.96561,2.001841 21.36806,-1.387117 z"
         style="fill:#ffffff;fill-opacity:1"
         inkscape:connector-curvature="0" />
      <path
         id="path5788"
         d="m 282.75469,88.910318 c 0,-1.329084 -2.63688,-2.067626 -7.38223,-2.067626 -4.86053,0 -6.8059,1.617797 -2.69291,2.239475 5.18215,0.783285 10.07514,0.699827 10.07514,-0.171849 z"
         style="fill:#ffffff;fill-opacity:1"
         inkscape:connector-curvature="0" />
      <path
         id="path5786"
         d="m 205.41231,85.258403 c 1.83609,-1.13477 -1.94103,-2.196101 -8.03226,-2.256983 -5.90678,-0.05904 -8.52855,0.969033 -7.34692,2.88094 0.80048,1.295191 13.08004,0.79699 15.37918,-0.623957 z"
         style="fill:#ffffff;fill-opacity:1"
         inkscape:connector-curvature="0" />
      <path
         id="path5784"
         d="m 264.14303,75.841961 c 1.1699,-2.20781 1.92926,-5.557757 1.92926,-8.511044 0,-4.101734 -0.46403,-5.334217 -2.94077,-7.810966 -2.56542,-2.565421 -8.28679,-4.954785 -9.34071,-3.900872 -0.20092,0.200927 0.0792,2.340515 0.62247,4.754642 1.15592,5.136426 0.48072,9.67483 -2.22983,14.987938 -1.07204,2.101374 -1.80796,3.943261 -1.63537,4.09308 0.17257,0.14982 2.08016,1.179926 4.23906,2.289124 l 3.92527,2.016723 1.75068,-2.138888 c 0.96288,-1.176389 2.61885,-3.777271 3.67994,-5.779737 z"
         style="fill:#ffffff;fill-opacity:1"
         inkscape:connector-curvature="0" />
      <path
         id="path2989"
         d="m 222.88433,72.115118 c 0.006,-2.819799 0.89948,-6.094667 2.46327,-9.032239 2.84857,-5.351034 3.05622,-7.201012 0.90106,-8.028024 -2.76774,-1.06208 -4.9997,-0.637036 -7.66532,1.459747 -5.8382,4.592328 -8.2583,14.754356 -4.87697,20.478484 l 1.60655,2.719684 3.78072,-1.586957 c 3.59007,-1.50694 3.78121,-1.810012 3.79069,-6.010695 z"
         style="fill:#ffffff;fill-opacity:1"
         inkscape:connector-curvature="0" />
    </g>
  </g>
</svg>
